<svg width="30" height="24" viewBox="0 0 30 24" fill="none" xmlns="http://www.w3.org/2000/svg">
<path d="M26.7857 10.0516C26.1103 9.75629 25.3805 9.60411 24.6429 9.60474H5.35714C4.61954 9.60403 3.88983 9.75599 3.21429 10.051C2.25951 10.4668 1.44706 11.1508 0.876224 12.0192C0.305392 12.8875 0.000912353 13.9028 0 14.9407V22.4111C0 22.6941 0.112882 22.9655 0.313814 23.1657C0.514746 23.3658 0.787268 23.4783 1.07143 23.4783C1.35559 23.4783 1.62811 23.3658 1.82904 23.1657C2.02997 22.9655 2.14286 22.6941 2.14286 22.4111V21.8775C2.14459 21.7365 2.20159 21.6018 2.30168 21.5021C2.40178 21.4024 2.53703 21.3456 2.67857 21.3439H27.3214C27.463 21.3456 27.5982 21.4024 27.6983 21.5021C27.7984 21.6018 27.8554 21.7365 27.8571 21.8775V22.4111C27.8571 22.6941 27.97 22.9655 28.171 23.1657C28.3719 23.3658 28.6444 23.4783 28.9286 23.4783C29.2127 23.4783 29.4853 23.3658 29.6862 23.1657C29.8871 22.9655 30 22.6941 30 22.4111V14.9407C29.999 13.9029 29.6944 12.8878 29.1236 12.0195C28.5528 11.1513 27.7404 10.4675 26.7857 10.0516ZM23.0357 0H6.96429C5.96972 0 5.0159 0.393527 4.31264 1.09401C3.60937 1.79449 3.21429 2.74455 3.21429 3.73518V8.53755C3.21432 8.57889 3.22399 8.61966 3.24255 8.65665C3.26111 8.69363 3.28804 8.72581 3.32123 8.75064C3.35441 8.77548 3.39293 8.7923 3.43376 8.79977C3.47459 8.80723 3.5166 8.80515 3.55647 8.79368C4.14138 8.62328 4.74773 8.53703 5.35714 8.53755H5.6404C5.70652 8.53797 5.77045 8.51401 5.8199 8.4703C5.86935 8.42659 5.90082 8.3662 5.90826 8.30077C5.9667 7.7793 6.21593 7.29755 6.60837 6.94752C7.0008 6.59748 7.50893 6.40369 8.03571 6.40316H11.7857C12.3128 6.4032 12.8215 6.59677 13.2143 6.94685C13.6072 7.29693 13.8567 7.77896 13.9152 8.30077C13.9226 8.3662 13.9541 8.42659 14.0035 8.4703C14.053 8.51401 14.1169 8.53797 14.183 8.53755H15.821C15.8871 8.53797 15.951 8.51401 16.0005 8.4703C16.0499 8.42659 16.0814 8.3662 16.0888 8.30077C16.1472 7.77964 16.3962 7.29817 16.7882 6.94818C17.1802 6.5982 17.6878 6.40419 18.2143 6.40316H21.9643C22.4914 6.4032 23 6.59677 23.3929 6.94685C23.7857 7.29693 24.0353 7.77896 24.0937 8.30077C24.1012 8.3662 24.1327 8.42659 24.1821 8.4703C24.2316 8.51401 24.2955 8.53797 24.3616 8.53755H24.6429C25.2523 8.53726 25.8587 8.62373 26.4435 8.79434C26.4835 8.80583 26.5255 8.80791 26.5664 8.8004C26.6073 8.7929 26.6458 8.77602 26.679 8.75111C26.7122 8.7262 26.7392 8.69393 26.7577 8.65687C26.7762 8.6198 26.7858 8.57895 26.7857 8.53755V3.73518C26.7857 2.74455 26.3906 1.79449 25.6874 1.09401C24.9841 0.393527 24.0303 0 23.0357 0Z" fill="#36437C"/>
</svg>
