<svg width="25" height="30" viewBox="0 0 25 30" fill="none" xmlns="http://www.w3.org/2000/svg">
<path d="M17.0182 0H24.5455V2.72727H19.0636L18.1773 5.75727H24.6409L22.9882 30H5.75045L4.56409 12.6518C2.01136 12.0859 0 9.87136 0 7.12091C0 3.95727 2.61 1.44 5.76955 1.44C8.46 1.44 10.7509 3.26318 11.3741 5.75727H15.3341L17.0195 0H17.0182ZM14.5364 8.48455H7.01591L7.33773 13.2327L12.8836 14.1341L14.5364 8.48455ZM13.6309 17.0182L7.52864 16.0268L8.29773 27.2727H20.4395L21.0545 18.2509L13.6364 17.0195H13.6323L13.6309 17.0182ZM21.2414 15.5182L21.7214 8.48455H17.3782L15.5945 14.58L21.2414 15.5168V15.5182ZM8.46955 5.75591C8.20573 5.27117 7.81519 4.86721 7.33964 4.58716C6.86409 4.30712 6.32141 4.16152 5.76955 4.16591C4.06364 4.16727 2.72727 5.51591 2.72727 7.12091C2.72727 8.20773 3.38182 9.19773 4.365 9.70636L4.09636 5.75727L8.46955 5.75591Z" fill="black"/>
</svg>
