<svg width="24" height="24" viewBox="0 0 24 24" fill="none" xmlns="http://www.w3.org/2000/svg">
<path fill-rule="evenodd" clip-rule="evenodd" d="M23.9273 3.61828C24.2085 3.09469 23.5709 3.25349 23.5709 3.25349C23.5709 3.25349 19.3202 7.33379 18.7294 6.8338C18.1386 6.33382 22.8913 2.42311 22.3289 1.69232C21.8086 1.01114 17.6331 5.87423 17.1315 5.28024C16.6347 4.68745 20.707 0.431154 20.707 0.431154C20.707 0.431154 20.8618 -0.209631 20.3422 0.0711629C13.9395 3.51428 13.124 6.72421 13.124 6.72421C13.124 6.72421 12.9036 7.34939 13.382 7.83258C13.4288 7.87458 1.70063 19.5363 0.130663 21.1107C-0.633319 21.8739 2.16982 24.631 2.929 23.8678C4.49936 22.2934 16.1383 10.5469 16.1803 10.5905C16.6631 11.0725 17.2867 10.8513 17.2867 10.8513C17.2867 10.8513 20.4914 10.0333 23.9273 3.61828Z" fill="black"/>
<path fill-rule="evenodd" clip-rule="evenodd" d="M12.0104 15.4028C15.1315 18.5307 20.3934 23.8022 20.3934 23.8022C20.3934 23.8022 22.6901 23.0506 23.0137 21.1107L14.6639 12.7445C13.7786 13.6298 12.8941 14.5159 12.0104 15.4028ZM7.90327 12.6917C9.02282 11.573 10.1411 10.453 11.258 9.33175L2.183 0.239564C2.183 0.239564 2.019 0.067568 1.65781 0.430359C0.940629 1.14514 -0.446938 5.69943 5.43572 11.5909C6.3681 12.5253 7.17928 12.6549 7.90327 12.6917Z" fill="black"/>
</svg>
