<svg width="30" height="30" viewBox="0 0 30 30" fill="none" xmlns="http://www.w3.org/2000/svg">
<path d="M15 23.25C15.85 23.25 16.65 23.0935 17.4 22.7805C18.15 22.4675 18.85 22.024 19.5 21.45C19.725 21.25 19.8375 20.9875 19.8375 20.6625C19.8375 20.3375 19.725 20.075 19.5 19.875C19.275 19.675 19.0065 19.575 18.6945 19.575C18.3825 19.575 18.101 19.675 17.85 19.875C17.425 20.2 16.975 20.4625 16.5 20.6625C16.025 20.8625 15.525 20.9625 15 20.9625C14.475 20.9625 13.975 20.8625 13.5 20.6625C13.025 20.4625 12.575 20.2 12.15 19.875C11.9 19.675 11.6185 19.575 11.3055 19.575C10.9925 19.575 10.724 19.675 10.5 19.875C10.275 20.075 10.1625 20.3375 10.1625 20.6625C10.1625 20.9875 10.275 21.25 10.5 21.45C11.15 22 11.85 22.4375 12.6 22.7625C13.35 23.0875 14.15 23.25 15 23.25ZM15 30C12.925 30 10.975 29.606 9.15 28.818C7.325 28.03 5.7375 26.9615 4.3875 25.6125C3.0375 24.2625 1.969 22.675 1.182 20.85C0.395 19.025 0.001 17.075 0 15C0 12.925 0.394 10.975 1.182 9.15C1.97 7.325 3.0385 5.7375 4.3875 4.3875C5.7375 3.0375 7.325 1.969 9.15 1.182C10.975 0.395 12.925 0.001 15 0C17.075 0 19.025 0.394 20.85 1.182C22.675 1.97 24.2625 3.0385 25.6125 4.3875C26.9625 5.7375 28.0315 7.325 28.8195 9.15C29.6075 10.975 30.001 12.925 30 15C30 17.075 29.606 19.025 28.818 20.85C28.03 22.675 26.9615 24.2625 25.6125 25.6125C24.2625 26.9625 22.675 28.0315 20.85 28.8195C19.025 29.6075 17.075 30.001 15 30ZM15 27C18.35 27 21.1875 25.8375 23.5125 23.5125C25.8375 21.1875 27 18.35 27 15C27 11.65 25.8375 8.8125 23.5125 6.4875C21.1875 4.1625 18.35 3 15 3C11.65 3 8.8125 4.1625 6.4875 6.4875C4.1625 8.8125 3 11.65 3 15C3 18.35 4.1625 21.1875 6.4875 23.5125C8.8125 25.8375 11.65 27 15 27ZM9.75 15C10.55 15 11.269 14.75 11.907 14.25C12.545 13.75 13.0385 13.1375 13.3875 12.4125C13.5125 12.0875 13.519 11.7685 13.407 11.4555C13.295 11.1425 13.076 10.949 12.75 10.875C12.475 10.8 12.2 10.8315 11.925 10.9695C11.65 11.1075 11.45 11.3135 11.325 11.5875C11.15 11.9125 10.931 12.1875 10.668 12.4125C10.405 12.6375 10.099 12.75 9.75 12.75C9.4 12.75 9.0875 12.6315 8.8125 12.3945C8.5375 12.1575 8.325 11.876 8.175 11.55C8.05 11.275 7.85 11.075 7.575 10.95C7.3 10.825 7.025 10.8 6.75 10.875C6.425 10.95 6.206 11.144 6.093 11.457C5.98 11.77 5.999 12.0885 6.15 12.4125C6.45 13.1625 6.925 13.7815 7.575 14.2695C8.225 14.7575 8.95 15.001 9.75 15ZM20.25 15C21.05 15 21.769 14.75 22.407 14.25C23.045 13.75 23.5385 13.1375 23.8875 12.4125C24.0125 12.0875 24.019 11.7685 23.907 11.4555C23.795 11.1425 23.576 10.949 23.25 10.875C22.975 10.8 22.7 10.8315 22.425 10.9695C22.15 11.1075 21.95 11.3135 21.825 11.5875C21.65 11.9125 21.431 12.1875 21.168 12.4125C20.905 12.6375 20.599 12.75 20.25 12.75C19.9 12.75 19.5875 12.6315 19.3125 12.3945C19.0375 12.1575 18.825 11.876 18.675 11.55C18.55 11.275 18.35 11.075 18.075 10.95C17.8 10.825 17.525 10.8 17.25 10.875C16.925 10.95 16.706 11.144 16.593 11.457C16.48 11.77 16.499 12.0885 16.65 12.4125C16.95 13.1625 17.425 13.7815 18.075 14.2695C18.725 14.7575 19.45 15.001 20.25 15Z" fill="black"/>
</svg>
