<svg width="37" height="30" viewBox="0 0 37 30" fill="none" xmlns="http://www.w3.org/2000/svg">
<path d="M25.2974 18.3333H11.5597C11.2414 18.3333 11.0236 18.6667 11.1744 18.95C12.5649 21.5667 15.2957 23.3333 18.4286 23.3333C21.5614 23.3333 24.2922 21.5667 25.6827 18.95C25.7125 18.8846 25.7256 18.8129 25.7209 18.7412C25.7162 18.6696 25.6938 18.6002 25.6557 18.5392C25.6176 18.4783 25.565 18.4276 25.5025 18.3916C25.44 18.3557 25.3695 18.3357 25.2974 18.3333ZM36.7566 13.9C36.5463 12.6698 35.9938 11.5228 35.1617 10.589C34.3297 9.65525 33.2514 8.97198 32.049 8.61667C31.1664 6.7709 29.9185 5.1213 28.38 3.76667C25.733 1.41667 22.2483 0 18.4286 0C14.6088 0 11.1242 1.41667 8.47714 3.76667C6.93584 5.11667 5.67935 6.76667 4.80818 8.61667C3.60443 8.96953 2.52469 9.65205 1.69226 10.5863C0.859825 11.5205 0.30825 12.6688 0.100519 13.9C0.0335064 14.25 0 14.6167 0 15C0 15.3833 0.0335064 15.75 0.100519 16.1C0.310853 17.3302 0.863349 18.4772 1.6954 19.411C2.52744 20.3447 3.60577 21.028 4.80818 21.3833C5.67925 23.2175 6.91612 24.8562 8.44364 26.2C11.0906 28.5667 14.5921 30 18.4286 30C22.2651 30 25.7665 28.5667 28.4303 26.2C29.9381 24.8667 31.1945 23.2167 32.0657 21.3833C33.266 21.0271 34.3418 20.3432 35.171 19.4093C36.0001 18.4754 36.5495 17.3289 36.7566 16.1C36.8236 15.75 36.8571 15.3833 36.8571 15C36.8571 14.6167 36.8236 14.25 36.7566 13.9ZM30.1558 18.3333C29.9883 18.3333 29.8375 18.3 29.67 18.2833C29.3349 19.4 28.8491 20.4333 28.2292 21.3833C26.1351 24.5667 22.5331 26.6667 18.4286 26.6667C14.324 26.6667 10.7221 24.5667 8.62792 21.3833C8.00805 20.4333 7.52221 19.4 7.18714 18.2833C7.01961 18.3 6.86883 18.3333 6.7013 18.3333C4.85844 18.3333 3.35065 16.8333 3.35065 15C3.35065 13.1667 4.85844 11.6667 6.7013 11.6667C6.86883 11.6667 7.01961 11.7 7.18714 11.7167C7.52221 10.6 8.00805 9.56667 8.62792 8.61667C10.7221 5.43333 14.324 3.33333 18.4286 3.33333C22.5331 3.33333 26.1351 5.43333 28.2292 8.61667C28.8491 9.56667 29.3349 10.6 29.67 11.7167C29.8375 11.7 29.9883 11.6667 30.1558 11.6667C31.9987 11.6667 33.5065 13.1667 33.5065 15C33.5065 16.8333 31.9987 18.3333 30.1558 18.3333Z" fill="black"/>
</svg>
