<svg width="25" height="23" viewBox="0 0 25 23" fill="none" xmlns="http://www.w3.org/2000/svg">
<path d="M15.2404 2.88196C16.2042 3.94741 16.8907 5.23384 17.2393 6.62758C17.5879 8.02133 17.5878 9.47948 17.2391 10.8732L17.1504 11.2007L21.4004 16.667C21.7582 17.1269 21.9908 17.6717 22.0756 18.2482C22.1604 18.8248 22.0944 19.4135 21.8841 19.957C22.0345 19.9979 22.1922 20.0043 22.3454 19.9757L22.4954 19.9382C22.8085 19.8383 23.1483 19.8658 23.4414 20.0146C23.7344 20.1634 23.957 20.4217 24.061 20.7334C24.1651 21.0452 24.1421 21.3853 23.9972 21.6803C23.8523 21.9753 23.597 22.2013 23.2866 22.3095C22.474 22.5893 21.5863 22.5563 20.7966 22.217C20.5508 22.113 20.3176 21.9813 20.1016 21.8245C19.5834 22.0534 19.0159 22.1482 18.4515 22.1001C17.887 22.0521 17.3437 21.8627 16.8716 21.5495L16.6666 21.4007L11.2016 17.1507C9.76771 17.5691 8.25054 17.6135 6.7946 17.2796C5.33866 16.9457 3.99244 16.2447 2.88414 15.2432C5.55474 13.9389 7.98966 12.1994 10.0891 10.0957C12.1948 7.99425 13.9357 5.55548 15.2404 2.88196ZM13.2504 1.24446C12.0437 3.88071 10.3744 6.27944 8.32164 8.32696C6.27533 10.3779 3.87834 12.0459 1.24414 13.252C0.24163 11.5783 -0.173049 9.61768 0.0659418 7.68143C0.304933 5.74517 1.1839 3.94424 2.56328 2.56457C3.94267 1.1849 5.74341 0.30556 7.67962 0.0661653C9.61583 -0.173229 11.5765 0.242292 13.2504 1.24446Z" fill="#36437C"/>
</svg>
