<svg width="18" height="17" viewBox="0 0 18 17" fill="none" xmlns="http://www.w3.org/2000/svg">
<path d="M17.6208 14.9244C17.8622 15.1524 17.9979 15.4617 17.9979 15.7841C17.9979 16.1066 17.8622 16.4159 17.6208 16.6439C17.3793 16.8719 17.0518 17 16.7104 17C16.3689 17 16.0415 16.8719 15.8 16.6439L9 10.22L2.19785 16.6419C1.9564 16.8699 1.62893 16.998 1.28747 16.998C0.946013 16.998 0.61854 16.8699 0.377092 16.6419C0.135644 16.4138 3.59785e-09 16.1046 0 15.7821C-3.59785e-09 15.4596 0.135644 15.1504 0.377092 14.9224L7.17924 8.50051L0.379234 2.07664C0.137786 1.84862 0.00214212 1.53935 0.00214212 1.21688C0.00214212 0.894415 0.137786 0.585153 0.379234 0.357133C0.620682 0.129112 0.948155 0.00101131 1.28961 0.0010113C1.63107 0.0010113 1.95855 0.129112 2.19999 0.357133L9 6.781L15.8021 0.356121C16.0436 0.1281 16.3711 -5.37235e-09 16.7125 0C17.054 5.37235e-09 17.3815 0.1281 17.6229 0.356121C17.8644 0.584141 18 0.893404 18 1.21587C18 1.53834 17.8644 1.84761 17.6229 2.07563L10.8208 8.50051L17.6208 14.9244Z" fill="black"/>
</svg>
