<svg width="29" height="32" viewBox="0 0 29 32" fill="none" xmlns="http://www.w3.org/2000/svg">
<path d="M27.7566 21.9261L20.7668 18.4697C20.4501 18.32 20.1045 18.2598 19.7614 18.2945C19.4183 18.3293 19.0885 18.458 18.8018 18.6689C18.7727 18.6895 18.745 18.7124 18.719 18.7375L15.0657 22.1662C15.0278 22.189 14.9856 22.2017 14.9425 22.2034C14.8993 22.2051 14.8564 22.1957 14.8171 22.176C12.469 20.9253 10.0364 18.2574 8.89858 15.7022C8.87963 15.6596 8.86978 15.6126 8.86978 15.5651C8.86978 15.5176 8.87963 15.4706 8.89858 15.428L12.0162 11.3462C12.0386 11.316 12.0593 11.2843 12.0783 11.2515C12.2668 10.9339 12.3807 10.5696 12.4096 10.1913C12.4385 9.81304 12.3816 9.43279 12.2441 9.08486L9.13385 1.38499C8.95722 0.930459 8.65176 0.551397 8.26331 0.304699C7.87487 0.0579998 7.42439 -0.0430279 6.97949 0.0167777C5.04593 0.297272 3.27108 1.34505 1.98662 2.96431C0.702153 4.58358 -0.00403599 6.66352 1.73523e-05 8.81547C1.73523e-05 21.5996 9.42533 32 21.0109 32C22.961 32.0041 24.8458 31.2247 26.3132 29.8075C27.7806 28.3902 28.7302 26.4319 28.9847 24.2985C29.0388 23.8098 28.9485 23.315 28.7272 22.8876C28.5059 22.4601 28.1655 22.1229 27.7566 21.9261ZM21.0109 30.0407C10.4049 30.0407 1.77559 20.5187 1.77559 8.81547C1.77064 7.14019 2.31862 5.52023 3.31714 4.25825C4.31567 2.99628 5.69642 2.17863 7.20143 1.95807H7.23547C7.29509 1.9593 7.35299 1.98038 7.40157 2.01855C7.45016 2.05671 7.48715 2.11019 7.50772 2.17196L10.6298 9.86367C10.6476 9.90643 10.6568 9.95294 10.6568 10C10.6568 10.0471 10.6476 10.0936 10.6298 10.1363L7.50624 14.2279C7.48294 14.2571 7.46167 14.2882 7.44262 14.321C7.24716 14.6502 7.13207 15.0296 7.10848 15.4223C7.08489 15.8151 7.1536 16.2079 7.30797 16.5627C8.62041 19.5277 11.3282 22.4927 14.0448 23.9409C14.3682 24.1103 14.7259 24.1843 15.083 24.1557C15.4401 24.1271 15.7844 23.9968 16.0822 23.7776C16.1104 23.7564 16.1385 23.7336 16.1651 23.7091L19.8169 20.2804C19.8529 20.259 19.8928 20.2465 19.9336 20.2436C19.9745 20.2408 20.0154 20.2478 20.0536 20.264L27.0449 23.7205C27.102 23.7473 27.15 23.7933 27.1822 23.8519C27.2143 23.9105 27.2289 23.9788 27.2239 24.047C27.0251 25.7085 26.2848 27.2332 25.1414 28.3363C23.998 29.4393 22.5297 30.0452 21.0109 30.0407Z" fill="#F8F8F8"/>
</svg>
